<?xml version="1.0" encoding="UTF-8"?><svg id="Layer_1" xmlns="http://www.w3.org/2000/svg" viewBox="0 0 200 69.67"><defs><style>.cls-1{fill:#fff;}</style></defs><path class="cls-1" d="M91.98,42.81h0v4.66c0,2.67-.68,4.66-2.06,5.98-1.37,1.32-3.16,1.98-5.36,1.98-1.88,0-3.47-.41-4.79-1.22-1.32-.81-2.18-1.9-2.57-3.27h-7.52c.36,3.43,1.9,6.13,4.62,8.12,2.73,1.98,6.21,2.98,10.47,2.98,3.17,0,5.88-.64,8.12-1.92,2.23-1.28,3.91-3.01,5.03-5.2,1.12-2.18,1.68-4.66,1.68-7.44V29.57c-1.06,9.72-7.43,13.14-7.63,13.24Z"/><path class="cls-1" d="M25.61,7.92C13.65,7.92,3.95,17.61,3.95,29.57s9.7,21.65,21.66,21.65,21.65-9.69,21.65-21.65S37.57,7.92,25.61,7.92Zm10.67,29.18c-.93,2.19-2.29,3.86-4.1,5.03-1.79,1.16-3.97,1.74-6.51,1.74s-4.86-.61-6.67-1.83c-1.81-1.22-3.17-2.92-4.09-5.12-.92-2.19-1.38-4.75-1.38-7.69s.45-5.48,1.36-7.75c.91-2.28,2.27-4.07,4.06-5.38,1.79-1.31,4.03-1.97,6.72-1.97s4.78,.63,6.57,1.89c1.78,1.26,3.14,3.02,4.06,5.29,.92,2.27,1.38,4.91,1.38,7.93s-.47,5.67-1.4,7.86Z"/><rect class="cls-1" x="136.8" y="7.92" width="7.58" height="43.31"/><rect class="cls-1" x="147.86" y="7.92" width="7.58" height="43.31"/><path class="cls-1" d="M92.13,17.61v5.32h-.42c-.38-.78-.93-1.62-1.66-2.5s-1.7-1.65-2.92-2.28-2.77-.95-4.66-.95c-2.47,0-4.71,.63-6.72,1.89-2.01,1.26-3.6,3.11-4.78,5.55-1.18,2.43-1.77,5.42-1.77,8.95s.59,6.42,1.77,8.74c1.18,2.32,2.77,4.07,4.77,5.23,2,1.16,4.24,1.74,6.71,1.74,1.84,0,3.37-.28,4.59-.84,1.22-.56,2.21-1.25,2.95-2.07s1.31-1.62,1.71-2.41h7.89V17.61h-7.47Zm-.88,21.21c-.59,1.47-1.44,2.59-2.58,3.37-1.13,.78-2.5,1.17-4.1,1.17s-3.06-.41-4.2-1.23c-1.14-.82-2-1.96-2.58-3.43-.58-1.47-.87-3.19-.87-5.16s.29-3.68,.86-5.2c.57-1.53,1.43-2.73,2.56-3.61,1.13-.88,2.54-1.32,4.23-1.32s3.01,.42,4.13,1.27,1.98,2.03,2.56,3.55c.58,1.52,.87,3.29,.87,5.32s-.29,3.81-.88,5.27Z"/><path class="cls-1" d="M175.49,17.35c-9.35,0-16.94,7.58-16.94,16.94s7.58,16.94,16.94,16.94,16.94-7.58,16.94-16.94-7.58-16.94-16.94-16.94Zm8.25,22.74c-.72,1.69-1.77,2.98-3.16,3.88-1.38,.9-3.07,1.35-5.03,1.35s-3.76-.47-5.15-1.41c-1.4-.94-2.45-2.26-3.16-3.95-.71-1.69-1.06-3.67-1.06-5.94s.35-4.23,1.05-5.99c.71-1.76,1.75-3.15,3.14-4.16,1.38-1.01,3.12-1.52,5.19-1.52s3.69,.49,5.07,1.46c1.38,.97,2.43,2.33,3.14,4.09,.71,1.75,1.06,3.79,1.06,6.12s-.36,4.39-1.08,6.08Z"/><path class="cls-1" d="M69.08,17.24v6.89c-.95-.49-2.05-.73-3.31-.73-1.63,0-3.01,.42-4.13,1.27-1.12,.84-1.97,2.03-2.56,3.55-.38,1-.64,2.11-.76,3.32v19.69h-7.58V17.6h7.47v5.32h.42c.38-.78,.93-1.61,1.66-2.5,.73-.89,1.7-1.65,2.92-2.28,1.22-.64,2.77-.95,4.66-.95,.41,0,.81,.02,1.21,.06Z"/><path class="cls-1" d="M133.32,17.62V51.23h-7.48v-5.32h-.42c-.38,.78-.93,1.61-1.66,2.5-.67,.82-1.55,1.52-2.63,2.13-1.54,.68-3.19,1.05-4.95,1.11h-.02c-2.46,0-4.69-.64-6.7-1.89-2.01-1.26-3.6-3.11-4.78-5.55-1.05-2.16-1.61-4.51-1.6-6.91,0-.77,0-1.53,0-2.3V17.62h7.58v16.9c-.01,.25-.02,.51-.02,.78s0,.52,.02,.77v.89c0,2.69,.67,4.75,2.01,6.2,.76,.82,1.67,1.4,2.74,1.75,.84,.35,1.8,.53,2.87,.53,1.38,0,2.58-.3,3.6-.91,.69-.34,1.31-.8,1.84-1.37,1.27-1.37,1.94-3.29,2.01-5.78,0-.14,0-.28,0-.42V17.62h7.58Z"/><path class="cls-1" d="M68.08,23.71h0s0,0-.02,0c0,0,.01,0,.02,0Z"/></svg>