<?xml version="1.0" encoding="utf-8"?>
<!-- Generator: Adobe Illustrator 26.5.0, SVG Export Plug-In . SVG Version: 6.00 Build 0)  -->
<svg version="1.1" id="Layer_1" xmlns="http://www.w3.org/2000/svg" xmlns:xlink="http://www.w3.org/1999/xlink" x="0px" y="0px"
	 viewBox="0 0 800 800" style="enable-background:new 0 0 800 800;" xml:space="preserve">
<style type="text/css">
	.st0{fill:#FFFFFF;stroke:#FFFFFF;stroke-width:15;stroke-miterlimit:10;}
</style>
<g id="_x32_5_attachment">
</g>
<g id="_x32_4_office">
</g>
<g id="_x32_3_pin">
</g>
<g id="_x32_2_business_card">
</g>
<g id="_x32_1_form">
</g>
<g id="_x32_0_headset">
</g>
<g id="_x31_9_video_call">
</g>
<g id="_x31_8_letter_box">
</g>
<g id="_x31_7_papperplane">
	<g>
		<g>
			<path class="st0" d="M725.6,90.6c-0.8-6.1-7-10.3-12.9-8.8L141.6,223.5c-3.7,0.9-6.6,3.8-7.6,7.5s0.1,7.6,2.9,10.3l146.4,140.4
				l-29.1,180.2c-1.1,7.1,5.2,13.2,12.2,12l190-33l180.6,102c1.6,0.9,3.4,1.3,5.1,1.3c1.6,0,3.2-0.3,4.7-1.1c3.1-1.5,5.3-4.5,5.7-8
				l73.1-541.7C725.7,92.5,725.7,91.6,725.6,90.6z M165.1,239.3l496.4-123.1L297.6,366.4L165.1,239.3z M451.6,520.4l-174.3,30.3
				l26.2-162.9l378.8-260.3L451.6,520.4z M633.7,616.9l-161-90.9l225.1-383.6L633.7,616.9z"/>
			<path class="st0" d="M215.5,606l-49.3,54.7c-3.9,4.3-3.5,10.9,0.8,14.9c2,1.8,4.5,2.7,7.1,2.7c2.9,0,5.7-1.2,7.8-3.4l49.3-54.7
				c3.9-4.3,3.5-10.9-0.8-14.9C226.1,601.4,219.4,601.7,215.5,606z"/>
			<path class="st0" d="M126.3,369.1L77,423.8c-3.9,4.3-3.5,10.9,0.8,14.9c2,1.8,4.5,2.7,7.1,2.7c2.9,0,5.7-1.2,7.8-3.4l49.3-54.7
				c3.9-4.3,3.5-10.9-0.8-14.9C136.8,364.4,130.1,364.8,126.3,369.1z"/>
			<path class="st0" d="M492.6,646.2l-49.3,54.7c-3.9,4.3-3.5,10.9,0.8,14.9c2,1.8,4.5,2.7,7.1,2.7c2.9,0,5.7-1.2,7.8-3.4l49.3-54.7
				c3.9-4.3,3.5-10.9-0.8-14.9C503.1,641.6,496.5,641.9,492.6,646.2z"/>
		</g>
	</g>
</g>
<g id="_x31_6_laptop">
</g>
<g id="_x31_5_connection">
</g>
<g id="_x31_4_phonebook">
</g>
<g id="_x31_3_classic_telephone">
</g>
<g id="_x31_2_sending_mail">
</g>
<g id="_x31_1_man_talking">
</g>
<g id="_x31_0_date">
</g>
<g id="_x30_9_review">
</g>
<g id="_x30_8_email">
</g>
<g id="_x30_7_information">
</g>
<g id="_x30_6_phone_talking">
</g>
<g id="_x30_5_women_talking">
</g>
<g id="_x30_4_calling">
</g>
<g id="_x30_3_women">
</g>
<g id="_x30_2_writing">
</g>
<g id="_x30_1_chatting">
</g>
</svg>
