<?xml version="1.0" encoding="utf-8"?>
<!-- Generator: Adobe Illustrator 26.5.0, SVG Export Plug-In . SVG Version: 6.00 Build 0)  -->
<svg version="1.1" id="Layer_1" xmlns="http://www.w3.org/2000/svg" xmlns:xlink="http://www.w3.org/1999/xlink" x="0px" y="0px"
	 viewBox="0 0 512 512" style="enable-background:new 0 0 512 512;" xml:space="preserve">
<style type="text/css">
	.st0{fill:#FFFFFF;}
</style>
<g>
	<path class="st0" d="M256,32L256,32C132.3,32,32,132.3,32,256v0c0,123.7,100.3,224,224,224h0c123.7,0,224-100.3,224-224v0
		C480,132.3,379.7,32,256,32z M453.8,256c0,108.8-89,197.8-197.8,197.8h0c-108.8,0-197.8-89-197.8-197.8v0
		c0-108.8,89-197.8,197.8-197.8h0C364.8,58.2,453.8,147.2,453.8,256L453.8,256z"/>
	<path class="st0" d="M358.9,238.3c-4.6-6.9-10.5-12-17.7-15.1c-7.1-3.2-15.1-4.8-24.2-4.7c-15,0-27.1,4.7-36.6,14.2
		c-9.4,9.5-14.1,23-14.1,40.8c0,18.9,5.3,32.6,15.7,41c10.4,8.4,22.4,12.6,36.1,12.6c16.5,0,29.3-5,38.5-15
		c5.9-6.3,9.2-12.5,9.9-18.6h-27.3c-1.6,3.1-3.4,5.4-5.5,7.1c-3.9,3.2-8.8,4.7-14.9,4.7c-5.8,0-10.7-1.3-14.8-3.9
		c-6.7-4.1-10.2-11.4-10.7-21.6h74.6c0.2-8.8-0.2-15.6-0.9-20.3C365.8,251.4,363.1,244.4,358.9,238.3z M294.1,262.1
		c1.1-6.7,3.4-11.9,7.2-15.8c3.8-3.9,9.1-5.9,15.9-5.9c6.3,0,11.6,1.8,15.9,5.5c4.2,3.7,6.6,9.1,7.1,16.2H294.1z"/>
	<rect x="287.2" y="191.5" class="st0" width="59.3" height="17.2"/>
	<path class="st0" d="M236.1,249.3c4.6-2.4,8.2-5,10.6-7.9c4.3-5.2,6.4-12,6.4-20.4c0-8.2-2.1-15.3-6.3-21.2
		c-7.1-9.6-19.1-14.5-35.9-14.8h-67v138.5h62.3c7.1,0,13.6-0.6,19.6-1.8c6-1.3,11.3-3.6,15.7-7c3.9-2.9,7.2-6.6,9.8-10.9
		c4.2-6.5,6.2-13.8,6.2-22.1c0-8-1.8-14.7-5.4-20.3C248.6,255.9,243.2,251.9,236.1,249.3z M171.5,209.1h30.1
		c6.7,0,12.1,0.8,16.4,2.2c5,2.1,7.4,6.3,7.4,12.8c0,5.8-1.8,9.9-5.6,12.2c-3.8,2.3-8.6,3.4-14.6,3.4h-33.7V209.1z M219.2,297
		c-3.3,1.7-8,2.5-14,2.5h-33.7v-36.9h34.1c6,0.1,10.5,0.9,13.8,2.4c6,2.7,8.8,7.7,8.8,14.9C228.3,288.2,225.4,293.9,219.2,297z"/>
</g>
</svg>
