<?xml version="1.0" encoding="utf-8"?>
<!-- Generator: Adobe Illustrator 26.5.0, SVG Export Plug-In . SVG Version: 6.00 Build 0)  -->
<svg version="1.1" id="Layer_1" xmlns="http://www.w3.org/2000/svg" xmlns:xlink="http://www.w3.org/1999/xlink" x="0px" y="0px"
	 viewBox="0 0 800 800" style="enable-background:new 0 0 800 800;" xml:space="preserve">
<style type="text/css">
	.st0{fill:#FFFFFF;stroke:#FFFFFF;stroke-width:15;stroke-miterlimit:10;}
</style>
<path class="st0" d="M612,498.6c-58.5-33-76-30.3-120.6-5.1c-22.9,15.2-50.4,5.9-98.3-33.1c-9.4-7.7-18.8-16.2-28-25.3
	c-9.2-9.2-17.7-18.7-25.4-28.1c-36.1-44.3-45.9-84.7-34.2-96.9c34.5-37.1,26.7-67.6-3.8-121.7c-18.4-34.7-38.5-69.3-65.4-77.2
	c-19.5-5.7-48.4,9.3-57,15c-22.1,14.7-43.2,40.8-54.9,68.1c-21.5,50.1-15.8,110.5-3.3,150.3c20.6,65.3,70,140.9,132.1,202.2
	c61.4,62.2,137,111.6,202.2,132.1c20.6,6.5,46.7,11.2,74.1,11.2c25.5,0,52-4,76.2-14.4c27.2-11.7,53.3-32.7,68-54.9
	c5.7-8.6,20.8-37.5,15-57C681,537,646.4,516.8,612,498.6z M601.1,518.5c21,11.1,60.2,31.8,66,51.7c1.2,4-0.3,11.4-3,19.1
	l-153.6-80.5C539.4,492.8,551.1,490.3,601.1,518.5z M229.9,133c19.9,5.9,40.6,45,51.9,66.3c29.8,52.8,29.7,69.4,10.5,91.5
	l-82.9-154.4c6.3-2.3,12.5-3.9,17-3.9C227.8,132.6,229,132.7,229.9,133z M597,654.8c-44.5,19.1-100.3,13.3-134.6,2.5
	c-61.9-19.5-134-66.7-192.9-126.4l-0.1-0.1c-59.7-58.9-106.9-131-126.5-192.9c-10.8-34.3-16.6-90.1,2.5-134.6
	c9.6-22.3,26.3-43.5,43.9-56.2l90,167.6c-5,26.9,10.4,67,42.8,106.7c8.1,10,17.2,20,26.9,29.8c9.8,9.7,19.8,18.8,29.7,26.9
	c35.1,28.6,71.9,52.5,106.4,43.1L654,609.7C641.4,627.7,619.8,644.9,597,654.8z"/>
</svg>
