<?xml version="1.0" encoding="utf-8"?>
<!-- Generator: Adobe Illustrator 26.5.0, SVG Export Plug-In . SVG Version: 6.00 Build 0)  -->
<svg version="1.1" id="Layer_1" xmlns="http://www.w3.org/2000/svg" xmlns:xlink="http://www.w3.org/1999/xlink" x="0px" y="0px"
	 viewBox="0 0 512 512" style="enable-background:new 0 0 512 512;" xml:space="preserve">
<style type="text/css">
	.st0{fill:#FFFFFF;}
</style>
<g>
	<g>
		<rect x="162.8" y="206.2" class="st0" width="42.5" height="136.2"/>
		<path class="st0" d="M279.2,342.4v-73.6c0-4.2-0.2-8.3,1-11.2c3.2-8.2,10.3-16.7,23-16.7c16.6,0,24.1,12.6,24.1,31v70.4h48.3
			v-75.7c0-42.1-23.7-61.7-54-61.7c-24.4,0-39.6,13.3-42.5,22.7v-21.4h-47.8c0.6,11.3,0,136.2,0,136.2L279.2,342.4L279.2,342.4z"/>
		<path class="st0" d="M182.6,189.2h0.3c16,0,26-10.5,25.9-23.6c-0.3-13.5-10-23.6-25.7-23.6s-26,10.1-26,23.6
			C157.2,178.8,167.2,189.2,182.6,189.2z"/>
	</g>
	<path class="st0" d="M256,32L256,32C132.3,32,32,132.3,32,256v0c0,123.7,100.3,224,224,224h0c123.7,0,224-100.3,224-224v0
		C480,132.3,379.7,32,256,32z M453.8,256c0,108.8-89,197.8-197.8,197.8h0c-108.8,0-197.8-89-197.8-197.8v0
		c0-108.8,89-197.8,197.8-197.8h0C364.8,58.2,453.8,147.2,453.8,256L453.8,256z"/>
</g>
</svg>
